<?xml version="1.0" standalone="no"?>
<!DOCTYPE svg PUBLIC "-//W3C//DTD SVG 20010904//EN"
 "http://www.w3.org/TR/2001/REC-SVG-20010904/DTD/svg10.dtd">
<svg version="1.0" xmlns="http://www.w3.org/2000/svg"
 width="2029.000000pt" height="2029.000000pt" viewBox="0 0 2029.000000 2029.000000"
 preserveAspectRatio="xMidYMid meet">
<metadata>
Created by potrace 1.14, written by Peter Selinger 2001-2017
</metadata>
<g transform="translate(0.000000,2029.000000) scale(0.100000,-0.100000)"
fill="#000000" stroke="none">
<path d="M8713 20254 c-25 -33 -58 -97 -103 -199 -21 -47 -92 -252 -139 -400
-50 -160 -198 -670 -206 -713 -2 -13 -15 -62 -29 -110 -23 -83 -64 -240 -71
-272 -2 -8 -9 -35 -16 -60 -7 -25 -13 -49 -15 -55 -1 -5 -34 -140 -74 -300
-39 -159 -73 -297 -75 -305 -2 -8 -14 -62 -28 -120 -14 -58 -28 -116 -31 -130
-3 -14 -12 -52 -20 -85 -7 -33 -21 -94 -30 -135 -9 -41 -23 -100 -31 -130 -8
-30 -16 -66 -19 -80 -2 -14 -18 -85 -35 -159 -17 -73 -33 -143 -35 -155 -10
-53 -76 -340 -79 -342 -2 -2 -12 13 -22 34 -234 448 -535 795 -977 1124 -232
173 -480 323 -863 523 -110 57 -213 114 -500 275 -22 13 -65 36 -95 53 -30 16
-80 43 -110 60 -30 17 -127 67 -215 112 -381 194 -609 264 -691 210 -64 -42
-132 -201 -158 -375 -15 -91 -16 -458 -3 -550 3 -19 9 -66 13 -105 4 -38 8
-72 9 -75 0 -3 5 -31 9 -64 8 -63 13 -92 31 -191 10 -54 24 -124 40 -195 3
-14 7 -36 10 -50 11 -60 97 -396 130 -510 59 -199 154 -504 172 -550 4 -8 7
-17 8 -20 8 -29 114 -368 192 -610 111 -347 233 -688 298 -835 153 -348 221
-483 350 -695 110 -183 260 -388 405 -555 155 -179 519 -508 705 -636 28 -19
52 -36 55 -39 22 -24 333 -217 490 -305 94 -52 449 -225 557 -271 l91 -39 11
-55 c15 -82 19 -99 32 -139 22 -67 78 -196 113 -263 l36 -65 -25 -69 c-23 -65
-109 -357 -119 -406 -3 -13 -15 -61 -27 -108 -11 -47 -22 -92 -24 -100 -2 -8
-15 -68 -29 -132 -14 -64 -27 -127 -30 -140 -2 -13 -9 -45 -15 -73 -11 -53
-37 -194 -44 -235 -3 -14 -12 -63 -20 -110 -16 -85 -20 -110 -31 -185 -4 -22
-9 -51 -12 -65 -3 -14 -8 -41 -10 -60 -3 -19 -9 -60 -14 -90 -5 -30 -12 -75
-15 -100 -3 -25 -8 -56 -10 -70 -2 -14 -7 -45 -10 -70 -3 -25 -8 -56 -10 -70
-2 -14 -7 -45 -10 -70 -3 -25 -8 -56 -10 -70 -2 -14 -7 -50 -10 -80 -4 -30
-10 -84 -15 -120 -5 -36 -12 -87 -15 -115 -3 -27 -8 -64 -10 -81 -2 -17 -7
-57 -10 -90 -4 -32 -8 -70 -10 -84 -2 -14 -6 -47 -9 -75 -3 -27 -8 -72 -11
-100 -3 -27 -8 -70 -10 -95 -3 -25 -7 -63 -10 -85 -2 -22 -7 -67 -10 -100 -3
-33 -8 -85 -11 -115 -2 -30 -7 -77 -9 -105 -6 -69 -15 -162 -20 -215 -3 -25
-7 -79 -10 -120 -3 -41 -7 -91 -10 -110 -2 -19 -7 -75 -10 -125 -3 -49 -8
-110 -10 -135 -3 -25 -7 -78 -10 -119 -2 -40 -7 -76 -10 -79 -6 -6 -15 -8 -70
-16 -82 -12 -398 -75 -510 -101 -38 -9 -77 -18 -85 -20 -173 -36 -568 -163
-820 -262 -210 -83 -470 -206 -572 -270 -21 -12 -40 -23 -43 -23 -11 0 -226
-136 -335 -213 -206 -144 -359 -275 -541 -462 -74 -76 -221 -248 -264 -309
-11 -15 -34 -47 -51 -70 -27 -37 -59 -85 -129 -196 -58 -92 -99 -167 -168
-310 -100 -208 -166 -386 -251 -680 -14 -50 -53 -226 -72 -325 -10 -56 -11
-328 -1 -395 12 -78 71 -250 113 -334 30 -59 113 -191 146 -231 195 -239 435
-434 773 -625 129 -74 380 -195 499 -241 28 -11 65 -27 81 -34 60 -27 303
-114 455 -162 130 -42 254 -77 510 -143 19 -5 69 -17 110 -26 114 -24 107 -17
151 -144 22 -63 41 -119 42 -125 5 -17 47 -129 57 -150 5 -11 26 -60 46 -110
79 -194 203 -424 319 -590 265 -380 616 -615 1060 -711 63 -13 211 -35 285
-42 161 -14 559 -7 715 13 17 2 57 7 90 10 32 4 66 8 75 10 8 1 42 6 75 10 32
3 62 8 65 10 3 2 28 6 55 9 28 3 59 8 70 10 27 5 183 34 220 40 52 9 479 105
515 116 19 6 51 13 70 16 19 3 37 7 40 7 3 1 46 -39 96 -89 71 -72 107 -99
169 -130 l79 -39 142 -2 c149 -3 204 7 291 50 53 25 122 94 147 144 10 21 22
45 26 54 4 8 16 47 25 86 17 70 18 71 42 62 82 -31 351 -44 508 -24 112 15
128 13 135 -15 40 -144 158 -250 311 -279 89 -17 285 -7 346 17 69 26 167 97
222 161 25 27 48 48 51 46 8 -5 250 -50 320 -60 25 -3 56 -8 70 -10 222 -32
278 -36 530 -40 225 -3 446 15 560 45 19 5 46 11 60 14 105 20 294 88 415 149
229 114 435 288 606 512 249 324 453 846 535 1365 3 19 7 46 9 60 3 14 7 50
11 80 3 30 8 64 10 75 22 106 21 654 0 800 -3 17 -10 71 -16 120 -15 111 -23
169 -45 291 -24 139 -109 482 -175 709 -23 77 -43 147 -45 155 -2 8 -38 125
-80 260 -129 414 -237 781 -231 787 2 2 35 0 72 -5 156 -21 377 -8 484 29 100
34 165 72 224 132 105 105 145 217 142 400 -2 96 -6 124 -32 198 -104 294
-402 512 -931 679 -73 22 -145 44 -160 46 -15 3 -29 7 -31 9 -4 3 -8 56 -16
205 -3 52 -8 129 -11 170 -2 41 -7 116 -10 165 -3 50 -8 128 -10 175 -3 47 -7
123 -10 170 -3 47 -8 121 -10 165 -3 44 -7 114 -10 155 -2 41 -7 125 -10 185
-3 61 -8 133 -10 160 -3 44 -8 119 -20 340 -2 33 -6 110 -10 170 -3 61 -8 137
-10 170 -2 33 -7 112 -10 175 -4 63 -8 138 -10 165 -2 28 -7 106 -10 175 -4
69 -8 145 -10 170 -1 25 -6 101 -9 170 -4 69 -9 157 -12 195 -2 39 -7 111 -9
160 -2 50 -7 133 -10 185 -3 52 -8 133 -10 180 -3 47 -7 126 -10 175 -3 50 -8
131 -10 180 -5 115 -14 277 -21 383 -5 82 -5 84 45 200 126 293 194 536 205
730 2 34 5 64 7 65 2 2 49 23 104 46 190 82 533 267 543 293 2 4 8 8 14 8 32
0 248 188 320 280 118 149 145 276 104 478 -10 49 -59 198 -68 210 -6 6 -8 12
-5 12 3 0 -5 24 -17 53 -32 70 -84 183 -106 230 l-19 39 57 72 c216 270 509
803 734 1331 33 77 64 149 68 160 5 11 23 52 39 92 17 39 31 78 31 85 0 8 4
18 9 23 16 19 184 488 260 730 84 268 183 639 215 805 3 14 10 50 16 80 6 30
13 69 15 87 2 17 8 57 14 90 6 32 13 81 16 108 4 28 9 61 11 75 13 64 11 369
-2 445 -19 110 -64 195 -116 225 -77 43 -219 13 -432 -92 -115 -56 -125 -61
-226 -121 -109 -64 -130 -78 -268 -169 -195 -129 -225 -150 -507 -359 -210
-155 -631 -487 -735 -579 -56 -49 -69 -54 -74 -28 -4 20 -62 375 -71 433 -8
51 -16 102 -20 121 -3 12 -7 39 -10 60 -3 21 -8 48 -10 60 -3 12 -7 39 -10 60
-4 21 -8 47 -11 57 -3 10 -7 30 -9 46 -5 41 -43 245 -60 321 -8 36 -17 81 -20
100 -13 80 -68 341 -87 415 -11 44 -22 91 -24 105 -3 14 -7 33 -10 42 -3 9 -6
25 -8 35 -2 10 -9 38 -16 63 -7 25 -14 52 -15 60 -39 176 -167 541 -231 656
-114 206 -210 244 -369 143 -45 -29 -183 -160 -228 -217 -164 -210 -328 -483
-516 -862 -156 -315 -182 -374 -403 -895 -14 -33 -30 -59 -36 -58 -6 2 -53 12
-104 23 -94 20 -226 44 -308 55 -55 8 -97 14 -130 20 -14 2 -54 7 -90 10 -36
3 -81 8 -100 10 -19 2 -64 7 -100 10 -36 3 -87 7 -115 10 -56 5 -219 14 -340
20 -103 5 -687 5 -830 1 -192 -7 -477 -25 -484 -32 -7 -6 -41 16 -41 27 0 23
-205 525 -320 784 -158 355 -292 621 -419 828 -36 60 -70 116 -76 125 -24 39
-103 141 -145 186 -60 65 -119 104 -167 112 -37 6 -42 4 -70 -32z m-2092
-14486 c-5 -13 -36 -83 -70 -156 -34 -73 -61 -135 -61 -137 0 -2 -18 -41 -39
-87 -302 -642 -546 -1373 -606 -1818 -3 -25 -8 -52 -10 -60 -2 -8 -7 -46 -10
-85 -4 -38 -9 -79 -10 -90 -1 -11 -3 -44 -4 -72 -1 -62 -3 -62 -103 -37 -179
44 -362 122 -493 209 -89 59 -230 202 -279 283 -38 64 -82 161 -90 203 -2 13
-9 44 -14 68 -28 119 -2 332 57 486 31 79 161 301 190 325 3 3 23 26 44 52 75
94 199 212 358 343 54 44 301 205 404 262 153 86 373 190 545 258 80 31 152
61 160 65 28 16 40 12 31 -12z"/>
</g>
</svg>
